<?xml version="1.0" standalone="no"?>
<!DOCTYPE svg PUBLIC "-//W3C//DTD SVG 20010904//EN"
 "http://www.w3.org/TR/2001/REC-SVG-20010904/DTD/svg10.dtd">
<svg version="1.0" xmlns="http://www.w3.org/2000/svg"
 width="320.000000pt" height="320.000000pt" viewBox="0 0 320.000000 320.000000"
 preserveAspectRatio="xMidYMid meet">
<metadata>
Created by potrace 1.14, written by Peter Selinger 2001-2017
</metadata>
<g transform="translate(0.000000,320.000000) scale(0.100000,-0.100000)"
fill="#000000" stroke="none">
<path d="M1917 3123 c-42 -30 -103 -66 -134 -79 l-58 -23 -9 64 c-5 36 -13 65
-18 65 -5 0 -43 -17 -86 -39 -42 -21 -142 -62 -222 -91 -80 -29 -163 -62 -185
-73 -106 -53 -237 -161 -286 -237 l-16 -25 -17 57 c-9 31 -20 59 -25 62 -12 8
-170 -235 -197 -302 -38 -94 -47 -185 -41 -417 6 -245 22 -438 43 -513 8 -30
12 -69 9 -90 -3 -20 -8 -53 -11 -72 l-6 -35 -21 41 c-30 56 -48 79 -73 92 -20
10 -22 8 -28 -20 -3 -17 -5 -32 -4 -33 73 -46 93 -74 101 -145 36 -297 35
-310 -20 -275 l-28 18 19 -21 c11 -12 29 -22 42 -22 19 0 24 -7 29 -37 31
-181 99 -341 211 -493 161 -219 338 -355 529 -405 77 -21 223 -21 300 -1 296
78 614 400 724 731 17 52 24 61 49 66 38 8 49 15 63 42 l12 22 -25 -22 c-30
-28 -72 -31 -64 -5 3 9 8 35 12 57 4 22 15 56 24 75 10 19 23 62 30 95 7 33
19 73 27 88 14 27 70 60 85 51 10 -6 9 54 0 78 -6 16 -10 15 -41 -9 -18 -14
-47 -45 -63 -67 l-30 -41 6 70 c3 39 6 77 7 85 1 8 12 42 24 75 25 65 86 354
106 500 18 139 8 262 -31 379 -37 109 -159 360 -175 358 -5 -1 -13 -26 -16
-57 -4 -31 -9 -58 -11 -61 -10 -9 -56 62 -83 127 -40 94 -126 259 -135 259 -5
0 -18 -24 -28 -52 -22 -58 -22 -58 -47 47 -26 113 -46 175 -55 175 -4 0 -22
-19 -39 -42 l-31 -42 0 56 c0 31 -4 59 -8 62 -5 3 -43 -20 -85 -51z m-420
-844 c84 -15 189 -23 368 -28 249 -8 250 -8 335 -40 112 -43 143 -63 179 -117
31 -48 61 -156 61 -223 0 -22 -12 -109 -27 -193 -24 -139 -26 -178 -28 -428
l-1 -275 -32 -85 c-18 -47 -41 -99 -51 -116 -36 -59 -117 -52 -202 16 -65 52
-112 70 -205 80 -49 6 -100 9 -114 8 -14 -1 -44 -1 -68 0 l-42 2 30 28 c36 32
48 83 29 127 -13 30 -13 30 -16 5 -12 -77 -51 -110 -130 -110 -81 1 -131 40
-146 115 -3 17 -6 16 -16 -10 -17 -40 0 -96 37 -126 l27 -22 -25 6 c-46 11
-174 22 -255 22 -74 -1 -87 -4 -165 -43 -96 -47 -138 -52 -187 -22 -40 24 -49
40 -73 142 -26 110 -25 204 5 376 21 119 25 174 25 336 0 161 3 206 20 272 37
142 97 246 164 281 35 18 193 40 308 42 42 0 129 -8 195 -20z m-22 -1469 c61
-6 182 -14 270 -18 l160 -7 -167 -3 c-120 -2 -216 3 -339 18 -278 33 -225 40
76 10z m-305 -52 c52 -107 188 -224 303 -260 59 -18 183 -25 173 -9 -3 4 5 6
17 4 13 -3 56 13 104 37 63 31 96 56 144 108 34 37 65 76 69 87 7 18 10 15 25
-19 20 -46 15 -98 -15 -155 -37 -73 -211 -190 -265 -179 -12 2 6 22 61 68 42
36 89 80 103 99 26 34 25 34 -37 -12 -80 -59 -182 -107 -241 -114 -100 -12
-212 34 -320 132 -64 58 -48 25 19 -39 66 -63 121 -92 201 -104 45 -7 34 -9
-61 -7 -126 2 -137 5 -216 69 -83 66 -134 157 -134 238 0 30 28 108 39 108 3
-1 17 -24 31 -52z m286 -8 c43 -5 122 -11 175 -13 68 -3 103 -9 120 -20 22
-16 18 -17 -101 -17 -110 0 -297 21 -322 36 -14 9 2 24 26 24 13 0 58 -4 102
-10z m114 -233 c41 1 43 0 17 -9 -31 -11 -93 -3 -103 13 -4 8 1 8 17 3 13 -5
44 -8 69 -7z"/>
<path d="M1016 1908 c-42 -25 -90 -80 -101 -116 -11 -37 20 -38 77 -1 49 32
58 34 133 33 51 -1 104 -9 145 -23 91 -29 115 -28 130 8 18 46 0 67 -78 91
-41 14 -105 23 -167 26 -91 5 -103 3 -139 -18z"/>
<path d="M1957 1861 c-69 -18 -87 -31 -87 -63 0 -51 25 -58 120 -33 70 19 191
19 234 1 18 -8 46 -30 62 -50 37 -46 64 -48 64 -4 0 44 -43 112 -87 139 -52
32 -205 37 -306 10z"/>
<path d="M1056 1634 c-110 -40 -179 -127 -154 -194 9 -23 10 -22 36 30 80 160
283 186 405 51 32 -36 43 -62 71 -166 3 -11 4 8 2 41 -5 75 -26 123 -81 177
-70 70 -185 96 -279 61z"/>
<path d="M1832 1624 c-30 -20 -49 -61 -72 -147 -26 -97 -25 -129 4 -156 l23
-22 6 38 c21 126 156 219 291 199 84 -13 177 -101 192 -182 7 -39 19 -44 30
-11 18 51 -4 105 -65 160 -61 55 -98 70 -183 75 -97 6 -147 -16 -217 -94 l-48
-55 -7 31 c-7 37 10 81 53 134 17 21 31 40 31 42 0 8 -17 3 -38 -12z"/>
<path d="M1110 1552 c-48 -24 -80 -75 -80 -127 0 -22 6 -48 13 -56 17 -22 164
-52 187 -39 26 14 30 13 30 -7 1 -14 9 -9 31 17 28 32 30 39 26 93 -4 43 -12
66 -29 84 -51 54 -115 67 -178 35z m39 -46 c16 -19 -4 -59 -26 -54 -26 5 -39
34 -24 52 17 20 35 20 50 2z"/>
<path d="M1938 1471 c-47 -40 -66 -112 -43 -167 8 -19 20 -36 27 -39 7 -3 62
-2 123 3 l110 7 13 40 c18 53 8 94 -32 140 -31 36 -37 39 -97 43 -59 3 -67 1
-101 -27z m66 -36 c9 -24 -4 -45 -29 -45 -29 0 -38 13 -30 40 8 24 50 27 59 5z"/>
</g>
</svg>
