<?xml version="1.0" standalone="no"?>
<!DOCTYPE svg PUBLIC "-//W3C//DTD SVG 20010904//EN"
 "http://www.w3.org/TR/2001/REC-SVG-20010904/DTD/svg10.dtd">
<svg version="1.0" xmlns="http://www.w3.org/2000/svg"
 width="320.000000pt" height="320.000000pt" viewBox="0 0 320.000000 320.000000"
 preserveAspectRatio="xMidYMid meet">
<metadata>
Created by potrace 1.14, written by Peter Selinger 2001-2017
</metadata>
<g transform="translate(0.000000,320.000000) scale(0.100000,-0.100000)"
fill="#000000" stroke="none">
<path d="M1905 3115 c-50 -34 -112 -69 -137 -77 l-47 -16 -6 64 c-4 35 -9 64
-11 64 -3 0 -144 -65 -196 -91 -10 -5 -23 -9 -30 -9 -7 0 -26 -7 -41 -15 -16
-8 -47 -20 -70 -26 -41 -11 -77 -24 -147 -57 -107 -48 -251 -164 -301 -242
l-16 -25 -17 58 c-10 35 -22 57 -29 55 -20 -6 -175 -245 -197 -304 -34 -93
-43 -183 -37 -409 6 -246 22 -438 43 -514 13 -46 14 -67 3 -140 -6 -47 -11
-158 -10 -245 1 -121 -1 -161 -11 -167 -10 -7 -9 -9 4 -9 12 0 19 -11 23 -37
31 -181 99 -341 211 -493 161 -219 338 -355 529 -405 77 -21 223 -21 300 -1
262 70 561 346 686 636 21 49 41 101 45 117 3 15 11 33 18 38 6 6 11 21 12 35
0 14 10 80 22 147 25 143 55 211 107 243 19 12 35 28 35 36 0 34 -52 -2 -92
-65 l-30 -46 5 95 c4 71 12 110 30 155 27 62 87 344 108 500 18 139 8 262 -31
379 -37 109 -159 360 -175 358 -5 -1 -13 -26 -16 -57 -4 -31 -9 -58 -11 -61
-10 -9 -56 62 -83 127 -40 94 -126 259 -135 259 -5 0 -18 -24 -28 -52 -12 -31
-22 -47 -25 -38 -3 8 -17 65 -32 125 -35 141 -43 150 -84 94 l-31 -43 0 56 c0
31 -3 59 -7 61 -5 2 -49 -23 -98 -58z m-445 -824 c126 -24 235 -33 413 -32
l188 1 109 -36 c152 -50 190 -77 230 -157 48 -97 90 -416 76 -574 -4 -43 -11
-141 -16 -218 -10 -152 -49 -354 -80 -414 -43 -85 -100 -131 -162 -131 -32 0
-57 13 -154 78 -73 49 -127 61 -280 63 -74 0 -136 4 -138 8 -3 4 8 12 24 19
35 16 79 102 52 102 -5 0 -14 -11 -20 -26 -33 -72 -193 -71 -250 1 l-22 28 0
-28 c0 -18 11 -38 35 -60 l35 -32 -127 19 c-172 26 -226 21 -332 -31 -126 -61
-178 -56 -240 23 -61 77 -81 191 -81 466 l0 205 46 185 c86 350 107 403 189
479 l53 48 124 12 c67 7 130 14 138 16 23 6 128 -3 190 -14z m-40 -1475 c74
-8 213 -18 309 -21 246 -9 258 -24 21 -24 -143 -1 -232 4 -330 18 -199 29
-220 33 -220 43 0 5 19 7 43 4 23 -3 103 -12 177 -20z m-161 -173 c46 -45 131
-103 176 -119 17 -7 18 -6 7 8 -11 13 -8 16 19 20 37 6 187 -6 196 -15 3 -4 0
-14 -8 -23 -13 -16 -11 -17 21 -11 70 14 175 74 226 131 64 71 74 83 74 95 0
27 22 18 36 -15 19 -46 13 -106 -15 -163 -39 -75 -188 -182 -254 -182 -17 0
-88 5 -157 12 -69 6 -136 11 -150 11 -14 -1 -39 -2 -56 -3 -40 -1 -78 19 -151
79 -81 68 -118 142 -118 237 0 56 4 75 20 93 l20 22 32 -64 c18 -35 55 -86 82
-113z m185 112 c60 -8 167 -15 238 -15 121 0 128 -1 128 -20 0 -18 -7 -20 -77
-21 -200 -2 -312 9 -425 41 -49 14 -53 44 -5 35 17 -3 81 -12 141 -20z"/>
<path d="M1054 1917 c-47 -14 -69 -30 -107 -75 -26 -32 -37 -82 -18 -82 5 0
32 16 61 35 46 31 59 35 119 35 39 0 104 -10 159 -25 51 -14 95 -25 97 -25 14
0 35 36 35 60 0 21 -7 30 -27 39 -105 42 -249 60 -319 38z"/>
<path d="M2005 1869 c-114 -25 -144 -45 -130 -88 9 -29 30 -32 103 -14 37 9
104 16 148 16 90 1 112 -8 170 -72 26 -28 36 -33 45 -24 20 20 -7 92 -50 134
-26 26 -50 39 -89 48 -61 13 -139 13 -197 0z"/>
<path d="M1075 1637 c-112 -37 -186 -116 -173 -184 3 -17 22 -22 24 -5 4 38
54 95 114 131 60 35 164 37 225 4 59 -31 105 -85 126 -145 16 -45 18 -49 19
-22 0 42 -46 130 -84 159 -78 60 -181 85 -251 62z"/>
<path d="M1995 1566 c-27 -7 -64 -20 -81 -29 -57 -30 -124 -123 -124 -174 0
-9 12 6 26 35 48 96 136 148 239 140 33 -3 75 -13 92 -22 50 -25 102 -85 121
-138 9 -26 21 -47 27 -45 19 6 16 65 -4 105 -51 100 -183 157 -296 128z"/>
<path d="M1113 1551 c-54 -25 -88 -86 -80 -144 3 -22 10 -43 16 -46 6 -4 45
-13 87 -21 68 -12 79 -11 104 3 36 22 43 21 37 -3 -7 -28 10 -15 29 22 19 38
14 106 -11 144 -18 27 -86 64 -120 64 -11 0 -39 -9 -62 -19z m41 -53 c8 -14 7
-21 -6 -34 -22 -22 -58 -10 -58 21 0 37 43 46 64 13z"/>
<path d="M1953 1481 c-18 -11 -39 -34 -48 -50 -20 -39 -20 -120 1 -149 15 -22
20 -23 97 -16 45 4 92 13 104 21 19 13 22 12 31 -4 10 -16 12 -15 21 10 26 67
10 137 -38 181 -33 30 -126 33 -168 7z m51 -46 c9 -25 -5 -45 -30 -45 -26 0
-40 20 -30 45 3 8 16 15 30 15 13 0 26 -7 30 -15z"/>
<path d="M1768 464 c-4 -3 -32 -16 -65 -30 -32 -13 -51 -24 -43 -24 17 0 120
46 120 55 0 7 -5 6 -12 -1z"/>
<path d="M560 1483 c0 -4 14 -21 31 -39 17 -17 37 -49 44 -70 8 -22 14 -31 15
-21 0 26 -28 89 -52 114 -21 23 -38 30 -38 16z"/>
<path d="M2529 893 c-13 -16 -12 -17 4 -4 9 7 17 15 17 17 0 8 -8 3 -21 -13z"/>
</g>
</svg>
